<?xml version="1.0" encoding="UTF-8" standalone="no"?>
<svg
   xmlns:dc="http://purl.org/dc/elements/1.1/"
   xmlns:cc="http://creativecommons.org/ns#"
   xmlns:rdf="http://www.w3.org/1999/02/22-rdf-syntax-ns#"
   xmlns:svg="http://www.w3.org/2000/svg"
   xmlns="http://www.w3.org/2000/svg"
   id="svg46"
   version="1.1"
   fill="none"
   viewBox="0 0 569 568"
   height="568"
   width="569">
  <metadata
     id="metadata50">
    <rdf:RDF>
      <cc:Work
         rdf:about="">
        <dc:format>image/svg+xml</dc:format>
        <dc:type
           rdf:resource="http://purl.org/dc/dcmitype/StillImage" />
      </cc:Work>
    </rdf:RDF>
  </metadata>
  <path
     id="path2"
     fill="url(#paint0_linear_83:1868)"
     d="M0.5 209.391C0.5 136.097 0.5 99.4504 14.7639 71.4559C27.3108 46.8313 47.3313 26.8108 71.9559 14.2639C99.9504 0 136.597 0 209.891 0H359.109C432.403 0 469.05 0 497.044 14.2639C521.669 26.8108 541.689 46.8313 554.236 71.4559C568.5 99.4504 568.5 136.097 568.5 209.391V358.609C568.5 431.903 568.5 468.55 554.236 496.544C541.689 521.169 521.669 541.189 497.044 553.736C469.05 568 432.403 568 359.109 568H209.891C136.597 568 99.9504 568 71.9559 553.736C47.3313 541.189 27.3108 521.169 14.7639 496.544C0.5 468.55 0.5 431.903 0.5 358.609V209.391Z" />
  <g
     id="g20"
     filter="url(#filter0_d_83:1868)">
    <rect
       id="rect4"
       fill="white"
       height="88"
       width="44"
       y="87"
       x="185.5" />
    <rect
       id="rect6"
       fill="white"
       height="88"
       width="44"
       y="87"
       x="339.5" />
    <rect
       id="rect8"
       fill="#B973FC"
       height="88"
       width="44"
       y="219"
       x="229.5" />
    <rect
       id="rect10"
       fill="#F8607E"
       height="88"
       width="44"
       y="219"
       x="317.5" />
    <rect
       id="rect12"
       fill="#B973FC"
       height="44"
       width="44"
       y="219"
       x="207.5" />
    <rect
       id="rect14"
       fill="#0EDE99"
       height="44"
       width="198"
       y="329"
       x="185.5" />
    <path
       id="path16"
       fill="white"
       d="M427.5 175H141.5V219H97.5V175V131H141.5H427.5H471.5V175V329H427.5V175ZM427.5 373V417H141.5V263H97.5V417V461H141.5H427.5C451.801 461 471.5 441.301 471.5 417V373H427.5Z"
       clip-rule="evenodd"
       fill-rule="evenodd" />
    <rect
       id="rect18"
       fill="#F8607E"
       height="44"
       width="44"
       y="219"
       x="295.5" />
  </g>
  <defs
     id="defs44">
    <filter
       color-interpolation-filters="sRGB"
       filterUnits="userSpaceOnUse"
       height="494"
       width="494"
       y="67"
       x="7.5"
       id="filter0_d_83:1868">
      <feFlood
         id="feFlood22"
         result="BackgroundImageFix"
         flood-opacity="0" />
      <feColorMatrix
         id="feColorMatrix24"
         result="hardAlpha"
         values="0 0 0 0 0 0 0 0 0 0 0 0 0 0 0 0 0 0 127 0"
         type="matrix"
         in="SourceAlpha" />
      <feOffset
         id="feOffset26"
         dy="40"
         dx="-30" />
      <feGaussianBlur
         id="feGaussianBlur28"
         stdDeviation="30" />
      <feComposite
         id="feComposite30"
         operator="out"
         in2="hardAlpha" />
      <feColorMatrix
         id="feColorMatrix32"
         values="0 0 0 0 0 0 0 0 0 0 0 0 0 0 0 0 0 0 0.25 0"
         type="matrix" />
      <feBlend
         id="feBlend34"
         result="effect1_dropShadow_83:1868"
         in2="BackgroundImageFix"
         mode="normal" />
      <feBlend
         id="feBlend36"
         result="shape"
         in2="effect1_dropShadow_83:1868"
         in="SourceGraphic"
         mode="normal" />
    </filter>
    <linearGradient
       gradientUnits="userSpaceOnUse"
       y2="568"
       x2="284.5"
       y1="0"
       x1="284.5"
       id="paint0_linear_83:1868">
      <stop
         id="stop39"
         stop-color="#061C38" />
      <stop
         id="stop41"
         stop-color="#3A4A64"
         offset="1" />
    </linearGradient>
  </defs>
</svg>
